<svg xmlns="http://www.w3.org/2000/svg" height="20" width="20"><path d="M10 13.5q1.458 0 2.479-1.021Q13.5 11.458 13.5 10q0-1.458-1.021-2.479Q11.458 6.5 10 6.5q-1.458 0-2.479 1.021Q6.5 8.542 6.5 10q0 1.458 1.021 2.479Q8.542 13.5 10 13.5Zm0-1.604q-.792 0-1.344-.552T8.104 10q0-.792.552-1.344T10 8.104q.792 0 1.344.552T11.896 10q0 .792-.552 1.344T10 11.896Zm0 4.25q-3.021 0-5.5-1.677T.854 10Q2.021 7.208 4.5 5.531 6.979 3.854 10 3.854t5.5 1.677Q17.979 7.208 19.146 10q-1.167 2.792-3.646 4.469-2.479 1.677-5.5 1.677ZM10 10Zm0 4.5q2.333 0 4.302-1.208 1.969-1.209 3.031-3.292-1.062-2.083-3.031-3.292Q12.333 5.5 10 5.5q-2.333 0-4.302 1.208Q3.729 7.917 2.667 10q1.062 2.083 3.031 3.292Q7.667 14.5 10 14.5Z"/></svg>