<svg xmlns="http://www.w3.org/2000/svg" height="20" width="20"><path d="M4.562 17.167q-.708 0-1.218-.511-.511-.51-.511-1.218V4.562q0-.729.511-1.229.51-.5 1.218-.5h10.876q.729 0 1.229.5.5.5.5 1.229v10.876q0 .708-.5 1.218-.5.511-1.229.511Zm0-1.729h10.876v-2.959h-2.271q-.479.896-1.323 1.448-.844.552-1.844.552-1.021 0-1.865-.541-.843-.542-1.302-1.459H4.562v2.959ZM10 12.979q.833 0 1.417-.583.583-.584.583-1.417h3.438V4.562H4.562v6.417H8q0 .833.583 1.417.584.583 1.417.583Zm-5.438 2.459h10.876Z"/></svg>