<svg xmlns="http://www.w3.org/2000/svg" height="20" width="20"><path d="M11.583 10.854q-1.041 0-1.771-.729-.729-.729-.729-1.771 0-1.042.729-1.771.73-.729 1.771-.729 1.042 0 1.771.729.729.729.729 1.771 0 1.042-.729 1.771-.729.729-1.771.729ZM5.729 13q-.708 0-1.219-.51Q4 11.979 4 11.271V5.417q0-.709.51-1.219.511-.51 1.219-.51h11.688q.729 0 1.229.51.5.51.5 1.219v5.854q0 .729-.5 1.229-.5.5-1.229.5Zm1.417-1.646H16q0-.625.438-1.073.437-.448 1.062-.448V6.854q-.625 0-1.062-.448Q16 5.958 16 5.354H7.146q0 .625-.438 1.063-.437.437-1.062.437v3q.625 0 1.062.438.438.437.438 1.062Zm9.354 4.792H2.583q-.729 0-1.229-.5-.5-.5-.5-1.229V6h1.729v8.417H16.5ZM5.646 11.354v-6 6Z"/></svg>