<svg xmlns="http://www.w3.org/2000/svg" height="20" width="20"><path d="m13.292 11.062-1.5-1.5q.041-.624-.386-1.041-.427-.417-1.01-.375L8.938 6.688q.25-.105.531-.146Q9.75 6.5 10 6.5q1.458 0 2.479 1.021Q13.5 8.542 13.5 10q0 .25-.042.531-.041.281-.166.531Zm2.916 2.917-1.187-1.208q.708-.563 1.302-1.24.594-.677 1.031-1.531-1.042-2.104-3.021-3.302Q12.354 5.5 10 5.5q-.542 0-1.031.062-.49.063-.969.188L6.667 4.417q.791-.313 1.635-.438T10 3.854q3 0 5.521 1.636 2.521 1.635 3.625 4.51-.458 1.188-1.229 2.177-.771.99-1.709 1.802Zm-.27 4.209-2.626-2.626q-.77.292-1.604.438-.833.146-1.708.146-3.021 0-5.531-1.636Q1.958 12.875.854 10q.438-1.188 1.198-2.177.76-.99 1.74-1.802L1.729 3.958l1.125-1.104 14.208 14.208ZM4.979 7.208q-.729.584-1.323 1.25-.594.667-.989 1.542 1.021 2.104 3 3.302T10 14.5q.5 0 1-.062.5-.063 1.021-.188l-.938-.938q-.271.084-.541.136-.271.052-.542.052-1.458 0-2.479-1.021Q6.5 11.458 6.5 10q0-.271.062-.542l.126-.541Zm6.104 1.75Zm-2.145 2.084Z"/></svg>