<svg xmlns="http://www.w3.org/2000/svg" height="20" width="20"><path d="M10 12.417q1.104 0 1.865-.771.76-.771.76-1.854 0-1.104-.771-1.875-.771-.771-1.854-.771-1.104 0-1.865.781-.76.781-.76 1.865 0 1.104.771 1.864.771.761 1.854.761Zm-.875 6.229v-1.458h-1.5v-1.73h1.5v-1.396q-1.521-.291-2.51-1.489-.99-1.198-.99-2.781 0-.688.219-1.323.218-.636.635-1.24l-.5-.5-1.062 1.063-1.063-1.063 1.063-1.062-1.375-1.375v1.791h-1.73V1.354h4.73v1.729H4.771l1.354 1.355 1.063-1.063L8.25 4.438 7.188 5.5l.562.562q.479-.333 1.062-.489.584-.156 1.188-.156.625 0 1.198.166.573.167 1.052.479l2.979-2.979h-1.771V1.354h4.73v4.729h-1.73V4.292L13.521 7.25q.417.583.635 1.208.219.625.219 1.334 0 1.583-.99 2.781-.989 1.198-2.51 1.489v1.396h1.5v1.73h-1.5v1.458Z"/></svg>